<svg xmlns="http://www.w3.org/2000/svg" xmlns:xlink="http://www.w3.org/1999/xlink" width="500" zoomAndPan="magnify" viewBox="0 0 375 374.999991" height="500" preserveAspectRatio="xMidYMid meet" version="1.0"><defs><g/><clipPath id="9cae11901d"><path d="M 7.675781 68 L 367.675781 68 L 367.675781 259.453125 L 7.675781 259.453125 Z M 7.675781 68 " clip-rule="nonzero"/></clipPath></defs><path fill="#d03531" d="M 199.636719 24.035156 C 200.066406 24.679688 200.429688 25.363281 200.789062 26.046875 C 201.328125 25.757812 201.867188 25.472656 202.441406 25.253906 C 202.585938 25.183594 202.765625 25.113281 202.910156 25.039062 C 206.148438 23.820312 209.457031 23.746094 213.375 24.96875 C 217.726562 26.367188 221.144531 29.382812 223.085938 33.117188 C 225.03125 36.851562 225.535156 41.375 224.167969 45.71875 C 222.007812 52.433594 216.828125 57.890625 210.066406 62.664062 C 203.84375 67.117188 196.328125 70.957031 188.847656 74.835938 C 186.472656 76.058594 183.523438 75.125 182.300781 72.753906 C 178.414062 65.285156 174.566406 57.820312 172.050781 50.566406 C 169.316406 42.777344 168.238281 35.308594 170.359375 28.59375 C 171.761719 24.25 174.78125 20.839844 178.523438 18.902344 C 182.265625 16.960938 186.796875 16.460938 191.148438 17.824219 C 195.03125 19.152344 197.730469 21.128906 199.636719 24.035156 Z M 193.269531 34.914062 C 192.875 32.472656 192.371094 30.640625 191.542969 29.382812 L 191.542969 29.347656 C 190.898438 28.34375 189.816406 27.625 188.199219 27.121094 C 186.402344 26.546875 184.53125 26.761719 182.984375 27.589844 C 181.4375 28.378906 180.179688 29.78125 179.601562 31.574219 C 178.199219 35.992188 179.136719 41.449219 181.222656 47.40625 C 183.054688 52.613281 185.789062 58.285156 188.703125 63.992188 C 194.386719 61.015625 199.886719 58 204.421875 54.765625 C 209.5625 51.105469 213.484375 47.191406 214.886719 42.777344 C 215.460938 40.980469 215.246094 39.113281 214.417969 37.570312 C 213.628906 36.027344 212.226562 34.769531 210.425781 34.195312 C 208.773438 33.65625 207.476562 33.65625 206.363281 34.085938 L 206.109375 34.195312 C 204.78125 34.769531 203.304688 36.027344 201.613281 37.75 C 199.746094 39.6875 196.652344 39.722656 194.746094 37.855469 C 193.882812 37.066406 193.414062 35.992188 193.269531 34.914062 Z M 193.269531 34.914062 " fill-opacity="1" fill-rule="evenodd"/><g clip-path="url(#9cae11901d)"><path fill="#000000" d="M 328.617188 225.265625 C 327.464844 225.730469 326.277344 226.199219 325.054688 226.59375 C 327.753906 230.183594 330.34375 235.175781 330.992188 241.636719 C 331.242188 244.113281 329.40625 246.339844 326.925781 246.554688 C 324.445312 246.804688 322.214844 244.976562 322 242.460938 C 321.316406 235.640625 317.609375 231.226562 315.164062 229.035156 C 313.257812 229.359375 311.316406 229.574219 309.410156 229.679688 C 313.257812 233.59375 315.882812 238.117188 317.609375 244.078125 C 318.292969 246.410156 320.523438 248.351562 323.222656 249.390625 C 324.625 249.929688 326.136719 250.179688 327.539062 250.109375 C 328.761719 250.039062 329.949219 249.644531 330.882812 248.925781 C 332.464844 247.703125 333.652344 245.371094 333.832031 241.566406 C 334.371094 230.253906 330.59375 226.449219 328.617188 225.265625 Z M 335.304688 186.8125 C 334.191406 195.035156 331.710938 206.558594 326.242188 216.398438 C 329.730469 214.855469 333.039062 212.914062 335.988281 210.582031 C 342.429688 205.519531 347.425781 196.652344 351.097656 186.992188 L 351.203125 186.742188 C 346.457031 186.992188 341.167969 187.03125 335.304688 186.8125 Z M 289.664062 104.167969 C 285.023438 104.167969 281.246094 110.164062 281.246094 117.523438 C 281.246094 124.882812 285.023438 130.878906 289.664062 130.878906 C 294.304688 130.878906 298.082031 124.882812 298.082031 117.523438 C 298.082031 110.128906 294.304688 104.167969 289.664062 104.167969 Z M 309.265625 192.019531 C 306.785156 192.019531 304.769531 194.03125 304.769531 196.507812 C 304.769531 198.984375 306.785156 200.996094 309.265625 200.996094 C 311.746094 200.996094 313.761719 198.984375 313.761719 196.507812 C 313.761719 194.03125 311.746094 192.019531 309.265625 192.019531 Z M 296.785156 180.136719 C 294.304688 180.136719 292.289062 182.148438 292.289062 184.625 C 292.289062 187.101562 294.304688 189.113281 296.785156 189.113281 C 299.265625 189.113281 301.28125 187.101562 301.28125 184.625 C 301.28125 182.148438 299.265625 180.136719 296.785156 180.136719 Z M 292.648438 196.328125 C 290.167969 196.328125 288.152344 198.339844 288.152344 200.816406 C 288.152344 203.292969 290.167969 205.304688 292.648438 205.304688 C 295.128906 205.304688 297.144531 203.292969 297.144531 200.816406 C 297.144531 198.339844 295.128906 196.328125 292.648438 196.328125 Z M 250.386719 105.101562 C 245.746094 105.101562 241.96875 111.097656 241.96875 118.457031 C 241.96875 125.816406 245.746094 131.8125 250.386719 131.8125 C 255.027344 131.8125 258.804688 125.851562 258.804688 118.457031 C 258.804688 111.0625 255.027344 105.101562 250.386719 105.101562 Z M 120.183594 142.691406 C 120.183594 142.726562 125.757812 155.832031 121.011719 158.09375 C 116.15625 160.425781 111.875 152.816406 111.839844 152.816406 C 110.617188 150.625 107.847656 149.871094 105.652344 151.128906 C 104.179688 151.953125 103.351562 153.460938 103.351562 155.042969 C 103.316406 155.972656 102.8125 161.933594 97.453125 162.582031 C 92.847656 163.117188 93.136719 148.828125 93.136719 148.792969 C 93.171875 146.316406 91.195312 144.234375 88.675781 144.199219 C 86.160156 144.164062 84.109375 146.136719 84.074219 148.652344 C 84.074219 148.722656 83.570312 173.386719 98.496094 171.59375 C 104.539062 170.875 107.957031 167.605469 109.898438 164.195312 C 113.566406 167.105469 118.710938 169.222656 124.859375 166.277344 C 137.519531 160.246094 128.527344 139.351562 128.492188 139.28125 C 127.558594 136.984375 124.894531 135.871094 122.59375 136.804688 C 120.328125 137.738281 119.25 140.355469 120.183594 142.691406 Z M 184.566406 134.757812 C 181.257812 143.371094 176.726562 160.210938 173.34375 177.480469 C 170.25 193.167969 168.164062 209.039062 168.847656 219.054688 C 169.136719 223.433594 170.71875 226.449219 173.019531 228.390625 C 174.53125 229.679688 176.4375 230.542969 178.523438 231.082031 C 180.824219 231.65625 183.34375 231.800781 185.898438 231.65625 C 193.558594 231.117188 201.398438 227.707031 205.355469 223.074219 C 214.5625 212.195312 209.996094 193.636719 206.183594 181.535156 C 201.433594 166.457031 193.449219 150.050781 184.566406 134.757812 Z M 246.753906 182.363281 C 245.78125 184.660156 243.121094 185.738281 240.820312 184.769531 C 238.519531 183.796875 237.4375 181.140625 238.410156 178.84375 C 238.410156 178.808594 243.300781 167.390625 256.679688 162.1875 C 259.019531 161.289062 261.644531 162.4375 262.542969 164.769531 C 263.441406 167.105469 262.292969 169.726562 259.953125 170.621094 C 257.761719 171.484375 255.890625 172.523438 254.308594 173.636719 C 255.925781 178.054688 260.457031 185.84375 266.285156 193.886719 C 271.570312 201.175781 277.832031 208.570312 283.945312 213.742188 C 286.605469 216.003906 289.808594 217.691406 293.332031 218.839844 L 293.511719 218.910156 C 298.082031 220.382812 303.1875 220.921875 308.402344 220.667969 C 309.660156 220.597656 310.882812 220.492188 312.144531 220.3125 C 312.25 220.203125 312.359375 220.132812 312.46875 220.023438 C 321.421875 210.976562 324.949219 196.042969 326.316406 186.097656 C 303.332031 182.183594 303.332031 159.566406 305.382812 146.28125 C 291.246094 148.113281 278.800781 150.265625 278.765625 150.300781 C 276.320312 150.734375 273.945312 149.117188 273.515625 146.640625 C 273.082031 144.199219 274.699219 141.828125 277.183594 141.398438 C 277.253906 141.398438 299.914062 137.414062 319.191406 135.652344 C 317.933594 129.371094 315.199219 118.0625 310.203125 105.171875 C 306.605469 95.910156 298.546875 87.90625 287.722656 82.878906 C 277.363281 78.066406 264.558594 75.984375 250.675781 77.996094 C 224.238281 81.910156 209.097656 116.699219 207.476562 120.503906 C 206.832031 122.585938 204.707031 123.949219 202.476562 123.625 C 202.441406 123.625 195.429688 122.515625 190.105469 126.355469 C 200.210938 143.230469 209.457031 161.789062 214.851562 178.773438 C 219.996094 195.035156 224.453125 214.53125 212.296875 228.890625 C 206.867188 235.28125 196.4375 239.984375 186.542969 240.667969 C 183.054688 240.917969 179.566406 240.667969 176.367188 239.839844 C 172.949219 238.980469 169.820312 237.507812 167.195312 235.28125 C 163.09375 231.835938 160.324219 226.703125 159.820312 219.628906 C 159.066406 208.75 161.222656 192.054688 164.460938 175.71875 C 168.5625 154.863281 174.460938 134.253906 178.054688 127.039062 C 178.34375 126.464844 178.632812 125.925781 178.957031 125.386719 C 176.292969 121.113281 173.558594 116.949219 170.863281 113.035156 C 157.804688 94.007812 145.683594 80.007812 140.902344 78.246094 C 131.585938 82.230469 128.421875 108.941406 128.3125 109.875 C 128.097656 111.851562 126.621094 113.503906 124.574219 113.863281 L 85.152344 120.609375 C 82.8125 121.042969 80.511719 119.640625 79.902344 117.34375 C 79.074219 114.292969 73.964844 107.183594 67.78125 102.730469 C 65.476562 101.082031 63.105469 99.859375 60.945312 99.574219 C 59.253906 99.320312 57.566406 99.714844 56.089844 101.007812 C 53.429688 103.378906 51.089844 108.367188 49.542969 117.164062 C 47.171875 130.628906 44.402344 150.984375 41.703125 172.632812 C 52.027344 175.46875 56.953125 179.347656 56.988281 179.382812 C 58.96875 180.925781 59.328125 183.761719 57.816406 185.738281 C 56.269531 187.710938 53.429688 188.070312 51.449219 186.5625 C 51.449219 186.5625 48.035156 183.871094 40.589844 181.644531 C 40.046875 186.097656 39.507812 190.621094 38.96875 195.070312 C 49.6875 196.902344 55.261719 201.929688 55.296875 201.929688 C 57.167969 203.582031 57.347656 206.453125 55.695312 208.320312 C 54.039062 210.1875 51.164062 210.367188 49.292969 208.714844 C 49.292969 208.714844 45.550781 205.339844 37.925781 203.976562 C 33.539062 241.601562 34.761719 231.691406 34.726562 231.871094 C 34.472656 234.347656 32.242188 236.179688 29.761719 235.929688 C 27.28125 235.675781 25.445312 233.449219 25.699219 230.972656 C 25.734375 230.792969 24.4375 240.988281 28.828125 203.542969 C 24.871094 203.796875 20.375 204.585938 15.230469 206.238281 C 12.855469 206.992188 10.304688 205.699219 9.546875 203.328125 C 8.792969 200.960938 10.085938 198.410156 12.460938 197.621094 C 19.007812 195.503906 24.796875 194.640625 29.871094 194.496094 C 30.445312 189.578125 31.054688 184.660156 31.632812 179.742188 C 26.417969 178.953125 20.085938 178.519531 12.570312 178.914062 C 10.085938 179.023438 7.929688 177.121094 7.820312 174.609375 C 7.675781 172.128906 9.621094 169.976562 12.101562 169.867188 C 20.085938 169.4375 26.957031 169.90625 32.746094 170.800781 C 35.445312 149.261719 38.214844 129.046875 40.550781 115.65625 C 42.496094 104.671875 45.875 97.957031 50.046875 94.296875 C 53.753906 91.027344 57.925781 90.058594 62.132812 90.667969 C 65.910156 91.207031 69.613281 93.003906 73.03125 95.480469 C 78.964844 99.753906 84.214844 106.359375 86.914062 111.203125 L 119.753906 105.605469 C 121.191406 96.773438 126.117188 73.472656 138.742188 69.488281 C 139.824219 69.164062 140.972656 69.128906 142.230469 69.378906 C 148.816406 70.707031 163.632812 86.574219 178.34375 108.046875 C 180.683594 111.457031 183.054688 115.046875 185.394531 118.707031 C 190.644531 115.191406 196.617188 114.542969 200.320312 114.542969 C 204.925781 104.636719 221.542969 73.257812 249.414062 69.164062 C 265.097656 66.867188 279.738281 69.269531 291.605469 74.800781 C 304.519531 80.832031 314.230469 90.5625 318.691406 102.015625 C 324.191406 116.195312 327.070312 128.6875 328.328125 135.078125 L 328.941406 135.042969 C 331.566406 134.9375 334.480469 134.71875 337.175781 134.542969 C 340.664062 134.289062 343.867188 134.074219 347.066406 134.039062 C 359.691406 133.859375 367.316406 136.480469 367.535156 150.410156 C 367.675781 159.671875 365.125 175.757812 359.621094 190.296875 C 355.449219 201.320312 349.515625 211.660156 341.636719 217.832031 C 340.199219 218.980469 338.652344 220.023438 337.105469 221.027344 C 340.414062 224.796875 343.433594 231.226562 342.894531 242.140625 C 342.535156 248.996094 339.984375 253.554688 336.351562 256.285156 C 333.902344 258.117188 331.0625 259.050781 328.148438 259.265625 C 325.414062 259.445312 322.574219 258.976562 319.949219 257.972656 C 314.839844 255.996094 310.417969 251.90625 308.90625 246.734375 C 307.613281 242.210938 305.632812 238.835938 302.792969 235.964844 C 299.804688 232.984375 295.707031 230.363281 290.273438 227.492188 C 285.742188 225.984375 281.644531 223.757812 278.117188 220.8125 C 271.429688 215.140625 264.628906 207.171875 258.949219 199.308594 C 254.128906 192.667969 250.097656 186.023438 247.582031 180.925781 C 247.007812 181.753906 246.753906 182.363281 246.753906 182.363281 Z M 246.753906 182.363281 " fill-opacity="1" fill-rule="evenodd"/></g><path fill="#000000" d="M 64.003906 142.976562 C 67.347656 142.441406 70.945312 147.5 72.023438 154.289062 C 73.101562 161.074219 71.304688 166.996094 67.960938 167.535156 C 64.613281 168.074219 61.015625 163.011719 59.9375 156.226562 C 58.824219 149.441406 60.65625 143.515625 64.003906 142.976562 Z M 64.003906 142.976562 " fill-opacity="1" fill-rule="evenodd"/><path fill="#000000" d="M 148.707031 129.660156 C 152.050781 129.121094 155.648438 134.183594 156.726562 140.96875 C 157.804688 147.753906 156.007812 153.675781 152.664062 154.214844 C 149.316406 154.753906 145.722656 149.691406 144.640625 142.90625 C 143.527344 136.121094 145.363281 130.195312 148.707031 129.660156 Z M 148.707031 129.660156 " fill-opacity="1" fill-rule="evenodd"/><g fill="#000000" fill-opacity="1"><g transform="translate(62.15625, 313.492304)"><g><path d="M 2.742188 0 L 18.671875 0 C 31.90625 0 37.867188 -7.648438 37.867188 -18.460938 C 37.867188 -29.269531 31.90625 -36.917969 18.671875 -36.917969 L 2.742188 -36.917969 Z M 14.925781 -10.230469 L 14.925781 -26.6875 L 18.355469 -26.6875 C 22.625 -26.6875 25.316406 -24.472656 25.316406 -18.460938 C 25.316406 -12.445312 22.625 -10.230469 18.355469 -10.230469 Z M 14.925781 -10.230469 "/></g></g></g><g fill="#000000" fill-opacity="1"><g transform="translate(101.337889, 313.492304)"><g><path d="M 17.035156 0.84375 C 20.992188 0.84375 23.785156 0.371094 26.265625 -0.476562 L 26.265625 -7.964844 C 24.101562 -7.277344 21.675781 -6.960938 18.933594 -6.960938 C 15.714844 -6.960938 12.65625 -7.964844 11.761719 -10.125 L 27.371094 -10.125 C 28.953125 -17.402344 26.105469 -26.160156 14.714844 -26.160156 C 9.070312 -26.160156 1.109375 -22.730469 1.109375 -12.816406 C 1.109375 -3.058594 8.914062 0.84375 17.035156 0.84375 Z M 11.601562 -15.242188 C 11.601562 -17.246094 13.027344 -18.828125 15.242188 -18.828125 C 17.824219 -18.828125 18.566406 -16.71875 18.300781 -15.242188 Z M 11.601562 -15.242188 "/></g></g></g><g fill="#000000" fill-opacity="1"><g transform="translate(130.18359, 313.492304)"><g/></g></g><g fill="#000000" fill-opacity="1"><g transform="translate(139.83398, 313.492304)"><g><path d="M 2.742188 0 L 14.925781 0 L 14.925781 -11.023438 C 14.925781 -12.972656 14.925781 -15.03125 14.660156 -17.296875 L 27.109375 0 L 37.445312 0 L 37.445312 -36.917969 L 25.261719 -36.917969 L 25.261719 -25.894531 C 25.261719 -23.945312 25.261719 -21.835938 25.527344 -19.621094 L 13.078125 -36.917969 L 2.742188 -36.917969 Z M 2.742188 0 "/></g></g></g><g fill="#000000" fill-opacity="1"><g transform="translate(180.017572, 313.492304)"><g><path d="M 11.65625 0.84375 C 14.714844 0.84375 17.246094 -0.316406 19.460938 -2.53125 L 19.460938 0 L 29.21875 0 L 29.21875 -25.316406 L 18.089844 -25.316406 L 18.089844 -9.703125 C 17.613281 -9.175781 16.664062 -8.492188 15.453125 -8.492188 C 14.082031 -8.492188 13.027344 -9.230469 13.027344 -10.863281 L 13.027344 -25.316406 L 1.898438 -25.316406 L 1.898438 -8.914062 C 1.898438 -4.0625 4.695312 0.84375 11.65625 0.84375 Z M 11.65625 0.84375 "/></g></g></g><g fill="#000000" fill-opacity="1"><g transform="translate(211.394523, 313.492304)"><g><path d="M 17.035156 0.84375 C 20.992188 0.84375 23.785156 0.371094 26.265625 -0.476562 L 26.265625 -7.964844 C 24.101562 -7.277344 21.675781 -6.960938 18.933594 -6.960938 C 15.714844 -6.960938 12.65625 -7.964844 11.761719 -10.125 L 27.371094 -10.125 C 28.953125 -17.402344 26.105469 -26.160156 14.714844 -26.160156 C 9.070312 -26.160156 1.109375 -22.730469 1.109375 -12.816406 C 1.109375 -3.058594 8.914062 0.84375 17.035156 0.84375 Z M 11.601562 -15.242188 C 11.601562 -17.246094 13.027344 -18.828125 15.242188 -18.828125 C 17.824219 -18.828125 18.566406 -16.71875 18.300781 -15.242188 Z M 11.601562 -15.242188 "/></g></g></g><g fill="#000000" fill-opacity="1"><g transform="translate(240.240225, 313.492304)"><g><path d="M 9.863281 0 L 21.675781 0 L 31.484375 -25.316406 L 19.832031 -25.316406 L 15.820312 -10.601562 L 11.8125 -25.316406 L 0.105469 -25.316406 Z M 9.863281 0 "/></g></g></g><g fill="#000000" fill-opacity="1"><g transform="translate(271.828114, 313.492304)"><g><path d="M 15.664062 0.84375 C 23.574219 0.84375 30.273438 -3.535156 30.273438 -12.65625 C 30.273438 -21.78125 23.574219 -26.160156 15.664062 -26.160156 C 7.753906 -26.160156 1.109375 -21.78125 1.109375 -12.65625 C 1.109375 -3.535156 7.753906 0.84375 15.664062 0.84375 Z M 15.664062 -8.332031 C 12.921875 -8.332031 11.972656 -10.285156 11.972656 -12.65625 C 11.972656 -15.03125 12.921875 -16.980469 15.664062 -16.980469 C 18.460938 -16.980469 19.410156 -15.03125 19.410156 -12.65625 C 19.410156 -10.285156 18.460938 -8.332031 15.664062 -8.332031 Z M 15.664062 -8.332031 "/></g></g></g><g fill="#000000" fill-opacity="1"><g transform="translate(303.199207, 313.492304)"><g/></g></g><g fill="#000000" fill-opacity="1"><g transform="translate(90.199217, 356.992301)"><g><path d="M 2.742188 0 L 31.0625 0 L 31.0625 -9.703125 L 14.925781 -9.703125 L 14.925781 -14.082031 L 28.847656 -14.082031 L 28.847656 -23.046875 L 14.925781 -23.046875 L 14.925781 -27.265625 L 30.746094 -27.265625 L 30.746094 -36.917969 L 2.742188 -36.917969 Z M 2.742188 0 "/></g></g></g><g fill="#000000" fill-opacity="1"><g transform="translate(122.999996, 356.992301)"><g><path d="M 2.164062 0 L 13.289062 0 L 13.289062 -15.609375 C 13.765625 -16.191406 14.714844 -16.824219 15.925781 -16.824219 C 17.296875 -16.824219 18.355469 -16.136719 18.355469 -14.449219 L 18.355469 0 L 29.480469 0 L 29.480469 -16.402344 C 29.480469 -21.253906 26.632812 -26.160156 19.671875 -26.160156 C 16.664062 -26.160156 14.132812 -25 11.917969 -22.785156 L 11.917969 -25.316406 L 2.164062 -25.316406 Z M 2.164062 0 "/></g></g></g><g fill="#000000" fill-opacity="1"><g transform="translate(154.376948, 356.992301)"><g/></g></g><g fill="#000000" fill-opacity="1"><g transform="translate(164.027338, 356.992301)"><g><path d="M 21.886719 0.84375 C 25.789062 0.84375 29.375 0.105469 32.699219 -1.371094 L 32.699219 -12.5 C 30.800781 -10.8125 27.265625 -9.863281 23.46875 -9.863281 C 18.617188 -9.863281 13.871094 -12.289062 13.871094 -18.089844 C 13.871094 -24.683594 18.671875 -27.160156 23.679688 -27.160156 C 27.003906 -27.160156 30.378906 -26.054688 32.433594 -24.683594 L 32.433594 -35.546875 C 29.164062 -37.023438 25.316406 -37.761719 21.570312 -37.761719 C 11.445312 -37.761719 1.320312 -32.117188 1.320312 -18.089844 C 1.320312 -4.640625 11.390625 0.84375 21.886719 0.84375 Z M 21.886719 0.84375 "/></g></g></g><g fill="#000000" fill-opacity="1"><g transform="translate(198.357414, 356.992301)"><g><path d="M 9.757812 0.84375 C 13.238281 0.84375 15.925781 -0.160156 18.195312 -1.953125 L 18.355469 -1.792969 C 19.621094 -0.105469 21.835938 0.6875 24.523438 0.6875 C 26.371094 0.6875 28.742188 0.316406 30.113281 -0.265625 L 30.113281 -6.75 C 29.796875 -6.699219 29.429688 -6.644531 29.113281 -6.644531 C 28.269531 -6.644531 27.636719 -7.015625 27.636719 -8.015625 L 27.636719 -13.871094 C 27.636719 -23.679688 22.046875 -26.160156 13.34375 -26.160156 C 9.652344 -26.160156 5.378906 -25.210938 2.953125 -24.472656 L 2.953125 -16.136719 C 5.855469 -17.191406 8.914062 -17.929688 12.078125 -17.929688 C 15.503906 -17.929688 17.085938 -16.929688 17.085938 -15.136719 L 17.085938 -14.503906 C 15.609375 -14.871094 13.5 -15.03125 12.078125 -15.03125 C 6.804688 -15.03125 0.949219 -13.238281 0.949219 -6.804688 C 0.949219 -1.742188 5.011719 0.84375 9.757812 0.84375 Z M 14.1875 -5.695312 C 12.816406 -5.695312 11.707031 -6.433594 11.707031 -7.699219 C 11.707031 -9.386719 13.34375 -9.96875 14.871094 -9.96875 C 15.714844 -9.96875 16.507812 -9.808594 17.085938 -9.652344 L 17.085938 -6.59375 C 16.191406 -5.960938 15.242188 -5.695312 14.1875 -5.695312 Z M 14.1875 -5.695312 "/></g></g></g><g fill="#000000" fill-opacity="1"><g transform="translate(228.626943, 356.992301)"><g><path d="M 12.394531 0.84375 C 18.882812 0.84375 24.894531 -0.949219 24.894531 -7.488281 C 24.894531 -16.402344 13.078125 -14.871094 13.078125 -17.5625 C 13.078125 -18.300781 13.921875 -18.511719 14.871094 -18.511719 C 17.402344 -18.511719 20.726562 -17.457031 22.890625 -16.191406 L 22.890625 -23.996094 C 20.09375 -25.316406 17.035156 -26.160156 12.921875 -26.160156 C 7.066406 -26.160156 1.476562 -24.261719 1.476562 -18.035156 C 1.476562 -9.441406 13.394531 -10.546875 13.394531 -8.015625 C 13.394531 -7.382812 12.710938 -7.066406 10.863281 -7.066406 C 8.4375 -7.066406 4.640625 -7.804688 1.742188 -9.863281 L 1.742188 -1.371094 C 4.589844 0.160156 7.964844 0.84375 12.394531 0.84375 Z M 12.394531 0.84375 "/></g></g></g><g fill="#000000" fill-opacity="1"><g transform="translate(254.51952, 356.992301)"><g><path d="M 9.757812 0.84375 C 13.238281 0.84375 15.925781 -0.160156 18.195312 -1.953125 L 18.355469 -1.792969 C 19.621094 -0.105469 21.835938 0.6875 24.523438 0.6875 C 26.371094 0.6875 28.742188 0.316406 30.113281 -0.265625 L 30.113281 -6.75 C 29.796875 -6.699219 29.429688 -6.644531 29.113281 -6.644531 C 28.269531 -6.644531 27.636719 -7.015625 27.636719 -8.015625 L 27.636719 -13.871094 C 27.636719 -23.679688 22.046875 -26.160156 13.34375 -26.160156 C 9.652344 -26.160156 5.378906 -25.210938 2.953125 -24.472656 L 2.953125 -16.136719 C 5.855469 -17.191406 8.914062 -17.929688 12.078125 -17.929688 C 15.503906 -17.929688 17.085938 -16.929688 17.085938 -15.136719 L 17.085938 -14.503906 C 15.609375 -14.871094 13.5 -15.03125 12.078125 -15.03125 C 6.804688 -15.03125 0.949219 -13.238281 0.949219 -6.804688 C 0.949219 -1.742188 5.011719 0.84375 9.757812 0.84375 Z M 14.1875 -5.695312 C 12.816406 -5.695312 11.707031 -6.433594 11.707031 -7.699219 C 11.707031 -9.386719 13.34375 -9.96875 14.871094 -9.96875 C 15.714844 -9.96875 16.507812 -9.808594 17.085938 -9.652344 L 17.085938 -6.59375 C 16.191406 -5.960938 15.242188 -5.695312 14.1875 -5.695312 Z M 14.1875 -5.695312 "/></g></g></g></svg>